<svg enable-background="new 0 175 700 350" height="215.406592" viewBox="0 175 1000 464.29416" width="464.238345" xmlns="http://www.w3.org/2000/svg" xmlns:xlink="http://www.w3.org/1999/xlink"><linearGradient id="a" gradientUnits="userSpaceOnUse" x1="790.54619729336" x2="988.22682530525" y1="186.32264630362" y2="427.84122984487"><stop offset=".282" stop-color="#eb2227"/><stop offset=".4186" stop-color="#fdec20"/><stop offset=".5529" stop-color="#10b04b"/><stop offset=".7142" stop-color="#23b7eb"/><stop offset=".8604" stop-color="#eb2227"/></linearGradient><path d="m263.1123 412.15013-36.42163 34.91036c-23.12245-23.72695-49.87195-35.51487-80.70188-35.51487-26.7495 0-49.116312 8.61425-67.251565 25.84274-18.135254 17.22849-27.051753 38.08403-27.051753 62.71775 0 25.54048 9.369881 47.00053 28.109642 64.6824 18.739762 17.68187 41.862206 26.59837 69.367346 26.59837 17.833 0 32.94571-3.62705 45.33813-10.88115 12.2413-7.2541 22.21569-18.73976 29.77204-34.30585h-78.88835v-47.30279h136.92116l.45338 11.18341c0 23.12245-6.19621 45.03588-18.58863 65.58916-12.39242 20.55329-28.26077 36.42164-47.9073 47.30279-19.49539 10.88115-42.61784 16.32173-68.91396 16.32173-28.26077 0-53.347867-5.89396-75.563552-17.833-22.064558-11.78792-39.74643-28.86528-52.441108-50.77871-12.8458039-22.06456-19.34426968-45.64039-19.34426968-71.18087 0-34.91036 11.78791468-65.28691 35.66599768-91.12965 28.26077-30.6788 64.984662-46.09377 110.171662-46.09377 23.72696 0 45.79152 4.23156 66.49593 12.69468 17.22849 7.40523 34.15473 19.64653 50.77871 37.17727z" fill="#0076c0" stroke-width="1.51127"/><path d="m365.6 391.8-38.7 106.4h-30.9l-39.4-107.3-20.2 107.3h-34.1l31.7-169.8h34.9l41.7 117.4 44.1-117.4h33.3l31.7 169.8h-33.9z" fill="#0076c0" transform="matrix(1.5112711 0 0 1.5112711 -32.038947 -122.23533)"/><g stroke-width="1.51127"><path d="m872.75908 427.26286c-102.46418-48.36068-228.65532-183.46832-154.30078-198.58103 41.40883-8.46312 125.73776 45.94264 125.73776 45.94264-53.80126-10.42777-67.10044-1.20901-75.56356 9.97439-22.66907 30.67881 47.75617 93.69881 120.44831 111.38069h.15113c6.19621 1.66239 12.8458 3.32479 17.53074 3.32479.30225 0 3.3248-.45338 4.68494-.90676 38.68854-14.96158 60.90423-218.07643 5.74283-186.79311-28.71415 16.32173-41.40883 87.35147-41.40883 87.35147-7.40523-82.36428 35.51487-156.86994 84.48006-108.81152 47.15162 45.94264 85.08452 318.2737-87.5026 237.11844z" fill="url(#a)"/><path d="m717.70265 373.61272h54.1035l107.75363 257.06721h-55.61478l-21.7623-52.89449h-114.40322l-22.8202 53.04562h-55.61477zm27.354 68.30945-37.63065 88.25823h74.95905z" fill="#0076c0"/></g></svg>